<svg width="95" height="19" viewBox="0 0 95 19" fill="none" xmlns="http://www.w3.org/2000/svg">
<path d="M12.5781 18L10.5342 12.7778H3.95312L1.93164 18H0L6.49121 1.51367H8.09717L14.5547 18H12.5781ZM9.93896 11.0596L8.02979 5.97217C7.78271 5.32829 7.52816 4.53841 7.26611 3.60254C7.1014 4.32129 6.86556 5.11117 6.55859 5.97217L4.62695 11.0596H9.93896ZM22.2588 5.48926C23.876 5.48926 25.13 6.04329 26.021 7.15137C26.9194 8.25195 27.3687 9.81299 27.3687 11.8345C27.3687 13.856 26.9157 15.4282 26.0098 16.5513C25.1113 17.6668 23.861 18.2246 22.2588 18.2246C21.4577 18.2246 20.724 18.0786 20.0576 17.7866C19.3988 17.4871 18.8447 17.0304 18.3955 16.4165H18.2607L17.8677 18H16.5312V0.525391H18.3955V4.77051C18.3955 5.72135 18.3656 6.57487 18.3057 7.33105H18.3955C19.264 6.10319 20.5518 5.48926 22.2588 5.48926ZM21.9893 7.05029C20.7165 7.05029 19.7993 7.41715 19.2378 8.15088C18.6763 8.87712 18.3955 10.105 18.3955 11.8345C18.3955 13.564 18.6838 14.8031 19.2603 15.5518C19.8368 16.293 20.7614 16.6636 22.0342 16.6636C23.1797 16.6636 24.0332 16.248 24.5947 15.417C25.1562 14.5785 25.437 13.3768 25.437 11.812C25.437 10.2098 25.1562 9.01562 24.5947 8.22949C24.0332 7.44336 23.1647 7.05029 21.9893 7.05029ZM41.2607 11.8345C41.2607 13.841 40.7554 15.4095 39.7446 16.54C38.7339 17.6631 37.3376 18.2246 35.5557 18.2246C34.4551 18.2246 33.478 17.9663 32.6245 17.4497C31.771 16.9331 31.1121 16.1919 30.6479 15.2261C30.1838 14.2603 29.9517 13.1297 29.9517 11.8345C29.9517 9.82796 30.4533 8.26693 31.4565 7.15137C32.4598 6.02832 33.8524 5.4668 35.6343 5.4668C37.3563 5.4668 38.7227 6.03955 39.7334 7.18506C40.7516 8.33057 41.2607 9.88037 41.2607 11.8345ZM31.8833 11.8345C31.8833 13.4067 32.1978 14.6047 32.8267 15.4282C33.4556 16.2518 34.3802 16.6636 35.6006 16.6636C36.821 16.6636 37.7456 16.2555 38.3745 15.4395C39.0109 14.6159 39.3291 13.4142 39.3291 11.8345C39.3291 10.2697 39.0109 9.08301 38.3745 8.27441C37.7456 7.45833 36.8135 7.05029 35.5781 7.05029C34.3577 7.05029 33.4368 7.45085 32.8154 8.25195C32.194 9.05306 31.8833 10.2472 31.8833 11.8345ZM46.292 5.69141V13.6763C46.292 14.6795 46.5203 15.4282 46.9771 15.9224C47.4338 16.4165 48.1488 16.6636 49.1221 16.6636C50.4098 16.6636 51.3494 16.3117 51.9409 15.6079C52.5399 14.9041 52.8394 13.7549 52.8394 12.1602V5.69141H54.7036V18H53.165L52.8955 16.3491H52.7944C52.4126 16.9556 51.881 17.4198 51.1997 17.7417C50.5259 18.0636 49.7547 18.2246 48.8862 18.2246C47.3888 18.2246 46.2658 17.869 45.5171 17.1577C44.7759 16.4465 44.4053 15.3084 44.4053 13.7437V5.69141H46.292ZM62.6436 16.686C62.973 16.686 63.2912 16.6636 63.5981 16.6187C63.9051 16.5662 64.1484 16.5138 64.3281 16.4614V17.8877C64.126 17.985 63.8265 18.0636 63.4297 18.1235C63.0404 18.1909 62.6885 18.2246 62.374 18.2246C59.9932 18.2246 58.8027 16.9705 58.8027 14.4624V7.14014H57.0396V6.2417L58.8027 5.4668L59.5889 2.83887H60.667V5.69141H64.2383V7.14014H60.667V14.3838C60.667 15.125 60.8429 15.694 61.1948 16.0908C61.5467 16.4876 62.0296 16.686 62.6436 16.686ZM74.5254 5.69141V13.6763C74.5254 14.6795 74.7537 15.4282 75.2104 15.9224C75.6672 16.4165 76.3822 16.6636 77.3555 16.6636C78.6432 16.6636 79.5828 16.3117 80.1743 15.6079C80.7733 14.9041 81.0728 13.7549 81.0728 12.1602V5.69141H82.937V18H81.3984L81.1289 16.3491H81.0278C80.646 16.9556 80.1144 17.4198 79.4331 17.7417C78.7593 18.0636 77.9881 18.2246 77.1196 18.2246C75.6222 18.2246 74.4992 17.869 73.7505 17.1577C73.0093 16.4465 72.6387 15.3084 72.6387 13.7437V5.69141H74.5254ZM94.8413 14.6421C94.8413 15.7876 94.4146 16.6711 93.561 17.2925C92.7075 17.9139 91.5096 18.2246 89.9673 18.2246C88.3351 18.2246 87.0623 17.9663 86.1489 17.4497V15.7202C86.7404 16.0197 87.373 16.2555 88.0469 16.4277C88.7282 16.5999 89.3833 16.686 90.0122 16.686C90.9855 16.686 91.7342 16.5326 92.2583 16.2256C92.7824 15.9111 93.0444 15.4357 93.0444 14.7993C93.0444 14.3201 92.8348 13.9121 92.4155 13.5752C92.0037 13.2308 91.1951 12.8265 89.9897 12.3623C88.8442 11.9355 88.0282 11.5649 87.5415 11.2505C87.0623 10.9285 86.703 10.5654 86.4634 10.1611C86.2313 9.75684 86.1152 9.27393 86.1152 8.7124C86.1152 7.70915 86.5233 6.91927 87.3394 6.34277C88.1554 5.75879 89.2747 5.4668 90.6973 5.4668C92.0225 5.4668 93.3177 5.73633 94.583 6.27539L93.9204 7.7915C92.6851 7.28239 91.5658 7.02783 90.5625 7.02783C89.679 7.02783 89.0127 7.16634 88.5635 7.44336C88.1143 7.72038 87.8896 8.10221 87.8896 8.58887C87.8896 8.91829 87.972 9.19906 88.1367 9.43115C88.3089 9.66325 88.5822 9.88411 88.9565 10.0938C89.3309 10.3034 90.0496 10.6066 91.1128 11.0034C92.5728 11.535 93.5573 12.0703 94.0664 12.6094C94.583 13.1484 94.8413 13.826 94.8413 14.6421Z" fill="#F7F7F7"/>
</svg>
