<svg width="78" height="19" viewBox="0 0 78 19" fill="none" xmlns="http://www.w3.org/2000/svg">
<path d="M12.5781 18L10.5342 12.7778H3.95312L1.93164 18H0L6.49121 1.51367H8.09717L14.5547 18H12.5781ZM9.93896 11.0596L8.02979 5.97217C7.78271 5.32829 7.52816 4.53841 7.26611 3.60254C7.1014 4.32129 6.86556 5.11117 6.55859 5.97217L4.62695 11.0596H9.93896ZM22.1465 5.4668C22.693 5.4668 23.1834 5.51172 23.6177 5.60156L23.3594 7.33105C22.8503 7.21875 22.401 7.1626 22.0117 7.1626C21.016 7.1626 20.1624 7.56689 19.4512 8.37549C18.7474 9.18408 18.3955 10.1911 18.3955 11.3965V18H16.5312V5.69141H18.0698L18.2832 7.97119H18.373C18.8298 7.17008 19.38 6.55241 20.0239 6.11816C20.6678 5.68392 21.3753 5.4668 22.1465 5.4668ZM29.8955 16.686C30.2249 16.686 30.5431 16.6636 30.8501 16.6187C31.1571 16.5662 31.4004 16.5138 31.5801 16.4614V17.8877C31.3779 17.985 31.0785 18.0636 30.6816 18.1235C30.2923 18.1909 29.9404 18.2246 29.626 18.2246C27.2451 18.2246 26.0547 16.9705 26.0547 14.4624V7.14014H24.2915V6.2417L26.0547 5.4668L26.8408 2.83887H27.9189V5.69141H31.4902V7.14014H27.9189V14.3838C27.9189 15.125 28.0949 15.694 28.4468 16.0908C28.7987 16.4876 29.2816 16.686 29.8955 16.686ZM35.915 18H34.0508V5.69141H35.915V18ZM33.8936 2.35596C33.8936 1.9292 33.9984 1.61849 34.208 1.42383C34.4176 1.22168 34.6797 1.12061 34.9941 1.12061C35.2936 1.12061 35.5519 1.22168 35.769 1.42383C35.9862 1.62598 36.0947 1.93669 36.0947 2.35596C36.0947 2.77523 35.9862 3.08968 35.769 3.29932C35.5519 3.50146 35.2936 3.60254 34.9941 3.60254C34.6797 3.60254 34.4176 3.50146 34.208 3.29932C33.9984 3.08968 33.8936 2.77523 33.8936 2.35596ZM44.7871 18.2246C43.0052 18.2246 41.6239 17.6781 40.6431 16.585C39.6698 15.4844 39.1831 13.9308 39.1831 11.9243C39.1831 9.8654 39.6772 8.27441 40.6655 7.15137C41.6613 6.02832 43.0763 5.4668 44.9106 5.4668C45.5021 5.4668 46.0936 5.53044 46.6851 5.65771C47.2765 5.78499 47.7407 5.93473 48.0776 6.10693L47.5049 7.69043C47.0931 7.52572 46.6439 7.39095 46.1572 7.28613C45.6706 7.17383 45.2401 7.11768 44.8657 7.11768C42.3651 7.11768 41.1147 8.7124 41.1147 11.9019C41.1147 13.4142 41.418 14.5747 42.0244 15.3833C42.6383 16.1919 43.5443 16.5962 44.7422 16.5962C45.7679 16.5962 46.8198 16.3753 47.8979 15.9336V17.5845C47.0744 18.0112 46.0374 18.2246 44.7871 18.2246ZM52.6934 18H50.8291V0.525391H52.6934V18ZM61.8462 18.2246C60.0269 18.2246 58.5894 17.6706 57.5337 16.5625C56.4855 15.4544 55.9614 13.9159 55.9614 11.9468C55.9614 9.96273 56.4481 8.38672 57.4214 7.21875C58.4022 6.05078 59.7161 5.4668 61.3633 5.4668C62.9056 5.4668 64.126 5.97591 65.0244 6.99414C65.9229 8.00488 66.3721 9.34131 66.3721 11.0034V12.1826H57.8931C57.9305 13.6276 58.2936 14.7244 58.9824 15.4731C59.6787 16.2218 60.6558 16.5962 61.9136 16.5962C63.2388 16.5962 64.549 16.3192 65.8442 15.7651V17.4272C65.1854 17.7118 64.5602 17.9139 63.9688 18.0337C63.3848 18.161 62.6772 18.2246 61.8462 18.2246ZM61.3408 7.02783C60.3525 7.02783 59.5627 7.34977 58.9712 7.99365C58.3872 8.63753 58.0428 9.52848 57.938 10.6665H64.373C64.373 9.49105 64.111 8.59261 63.5869 7.97119C63.0628 7.34229 62.3141 7.02783 61.3408 7.02783ZM77.5015 14.6421C77.5015 15.7876 77.0747 16.6711 76.2212 17.2925C75.3677 17.9139 74.1698 18.2246 72.6274 18.2246C70.9953 18.2246 69.7225 17.9663 68.8091 17.4497V15.7202C69.4006 16.0197 70.0332 16.2555 70.707 16.4277C71.3883 16.5999 72.0435 16.686 72.6724 16.686C73.6457 16.686 74.3944 16.5326 74.9185 16.2256C75.4425 15.9111 75.7046 15.4357 75.7046 14.7993C75.7046 14.3201 75.495 13.9121 75.0757 13.5752C74.6639 13.2308 73.8553 12.8265 72.6499 12.3623C71.5044 11.9355 70.6883 11.5649 70.2017 11.2505C69.7225 10.9285 69.3631 10.5654 69.1235 10.1611C68.8914 9.75684 68.7754 9.27393 68.7754 8.7124C68.7754 7.70915 69.1834 6.91927 69.9995 6.34277C70.8156 5.75879 71.9349 5.4668 73.3574 5.4668C74.6826 5.4668 75.9779 5.73633 77.2432 6.27539L76.5806 7.7915C75.3452 7.28239 74.2259 7.02783 73.2227 7.02783C72.3392 7.02783 71.6729 7.16634 71.2236 7.44336C70.7744 7.72038 70.5498 8.10221 70.5498 8.58887C70.5498 8.91829 70.6322 9.19906 70.7969 9.43115C70.9691 9.66325 71.2424 9.88411 71.6167 10.0938C71.991 10.3034 72.7098 10.6066 73.7729 11.0034C75.2329 11.535 76.2174 12.0703 76.7266 12.6094C77.2432 13.1484 77.5015 13.826 77.5015 14.6421Z" fill="#F7F7F7"/>
</svg>
