<svg width="47" height="25" viewBox="0 0 47 25" fill="none" xmlns="http://www.w3.org/2000/svg">
<path d="M0.355469 1.86719H5.19531C7.46875 1.86719 9.11328 2.20703 10.1289 2.88672C11.1445 3.56641 11.6523 4.64062 11.6523 6.10938C11.6523 7.125 11.3672 7.96484 10.7969 8.62891C10.2344 9.28516 9.41016 9.71094 8.32422 9.90625V10.0234C10.9258 10.4688 12.2266 11.8359 12.2266 14.125C12.2266 15.6562 11.707 16.8516 10.668 17.7109C9.63672 18.5703 8.19141 19 6.33203 19H0.355469V1.86719ZM2.34766 9.20312H5.62891C7.03516 9.20312 8.04688 8.98438 8.66406 8.54688C9.28125 8.10156 9.58984 7.35547 9.58984 6.30859C9.58984 5.34766 9.24609 4.65625 8.55859 4.23438C7.87109 3.80469 6.77734 3.58984 5.27734 3.58984H2.34766V9.20312ZM2.34766 10.8906V17.3008H5.92188C7.30469 17.3008 8.34375 17.0352 9.03906 16.5039C9.74219 15.9648 10.0938 15.125 10.0938 13.9844C10.0938 12.9219 9.73438 12.1406 9.01562 11.6406C8.30469 11.1406 7.21875 10.8906 5.75781 10.8906H2.34766ZM17.5703 19H15.625V0.765625H17.5703V19ZM32.7812 12.5664C32.7812 14.6602 32.2539 16.2969 31.1992 17.4766C30.1445 18.6484 28.6875 19.2344 26.8281 19.2344C25.6797 19.2344 24.6602 18.9648 23.7695 18.4258C22.8789 17.8867 22.1914 17.1133 21.707 16.1055C21.2227 15.0977 20.9805 13.918 20.9805 12.5664C20.9805 10.4727 21.5039 8.84375 22.5508 7.67969C23.5977 6.50781 25.0508 5.92188 26.9102 5.92188C28.707 5.92188 30.1328 6.51953 31.1875 7.71484C32.25 8.91016 32.7812 10.5273 32.7812 12.5664ZM22.9961 12.5664C22.9961 14.207 23.3242 15.457 23.9805 16.3164C24.6367 17.1758 25.6016 17.6055 26.875 17.6055C28.1484 17.6055 29.1133 17.1797 29.7695 16.3281C30.4336 15.4688 30.7656 14.2148 30.7656 12.5664C30.7656 10.9336 30.4336 9.69531 29.7695 8.85156C29.1133 8 28.1406 7.57422 26.8516 7.57422C25.5781 7.57422 24.6172 7.99219 23.9688 8.82812C23.3203 9.66406 22.9961 10.9102 22.9961 12.5664ZM46.7148 6.15625V7.38672L44.3359 7.66797C44.5547 7.94141 44.75 8.30078 44.9219 8.74609C45.0938 9.18359 45.1797 9.67969 45.1797 10.2344C45.1797 11.4922 44.75 12.4961 43.8906 13.2461C43.0312 13.9961 41.8516 14.3711 40.3516 14.3711C39.9688 14.3711 39.6094 14.3398 39.2734 14.2773C38.4453 14.7148 38.0312 15.2656 38.0312 15.9297C38.0312 16.2812 38.1758 16.543 38.4648 16.7148C38.7539 16.8789 39.25 16.9609 39.9531 16.9609H42.2266C43.6172 16.9609 44.6836 17.2539 45.4258 17.8398C46.1758 18.4258 46.5508 19.2773 46.5508 20.3945C46.5508 21.8164 45.9805 22.8984 44.8398 23.6406C43.6992 24.3906 42.0352 24.7656 39.8477 24.7656C38.168 24.7656 36.8711 24.4531 35.957 23.8281C35.0508 23.2031 34.5977 22.3203 34.5977 21.1797C34.5977 20.3984 34.8477 19.7227 35.3477 19.1523C35.8477 18.582 36.5508 18.1953 37.457 17.9922C37.1289 17.8438 36.8516 17.6133 36.625 17.3008C36.4062 16.9883 36.2969 16.625 36.2969 16.2109C36.2969 15.7422 36.4219 15.332 36.6719 14.9805C36.9219 14.6289 37.3164 14.2891 37.8555 13.9609C37.1914 13.6875 36.6484 13.2227 36.2266 12.5664C35.8125 11.9102 35.6055 11.1602 35.6055 10.3164C35.6055 8.91016 36.0273 7.82812 36.8711 7.07031C37.7148 6.30469 38.9102 5.92188 40.457 5.92188C41.1289 5.92188 41.7344 6 42.2734 6.15625H46.7148ZM36.4727 21.1562C36.4727 21.8516 36.7656 22.3789 37.3516 22.7383C37.9375 23.0977 38.7773 23.2773 39.8711 23.2773C41.5039 23.2773 42.7109 23.0312 43.4922 22.5391C44.2812 22.0547 44.6758 21.3945 44.6758 20.5586C44.6758 19.8633 44.4609 19.3789 44.0312 19.1055C43.6016 18.8398 42.793 18.707 41.6055 18.707H39.2734C38.3906 18.707 37.7031 18.918 37.2109 19.3398C36.7188 19.7617 36.4727 20.3672 36.4727 21.1562ZM37.5273 10.2695C37.5273 11.168 37.7812 11.8477 38.2891 12.3086C38.7969 12.7695 39.5039 13 40.4102 13C42.3086 13 43.2578 12.0781 43.2578 10.2344C43.2578 8.30469 42.2969 7.33984 40.375 7.33984C39.4609 7.33984 38.7578 7.58594 38.2656 8.07812C37.7734 8.57031 37.5273 9.30078 37.5273 10.2695Z" fill="#F7F7F7"/>
</svg>
