<svg width="92" height="18" viewBox="0 0 92 18" fill="none" xmlns="http://www.w3.org/2000/svg">
<path d="M8.2876 2.05225C6.48324 2.05225 5.05697 2.65495 4.00879 3.86035C2.9681 5.05827 2.44775 6.70166 2.44775 8.79053C2.44775 10.9393 2.94938 12.6014 3.95264 13.7769C4.96338 14.9448 6.40088 15.5288 8.26514 15.5288C9.41064 15.5288 10.7171 15.3229 12.1846 14.9111V16.5845C11.0465 17.0112 9.64274 17.2246 7.97314 17.2246C5.55485 17.2246 3.68685 16.4909 2.36914 15.0234C1.05892 13.556 0.403809 11.4709 0.403809 8.76807C0.403809 7.07601 0.718262 5.59359 1.34717 4.3208C1.98356 3.04801 2.89697 2.06722 4.0874 1.37842C5.28532 0.689616 6.69287 0.345215 8.31006 0.345215C10.0321 0.345215 11.5369 0.659668 12.8247 1.28857L12.0161 2.92822C10.7733 2.34424 9.53044 2.05225 8.2876 2.05225ZM26.1104 10.8345C26.1104 12.841 25.605 14.4095 24.5942 15.54C23.5835 16.6631 22.1872 17.2246 20.4053 17.2246C19.3047 17.2246 18.3276 16.9663 17.4741 16.4497C16.6206 15.9331 15.9618 15.1919 15.4976 14.2261C15.0334 13.2603 14.8013 12.1297 14.8013 10.8345C14.8013 8.82796 15.3029 7.26693 16.3062 6.15137C17.3094 5.02832 18.702 4.4668 20.4839 4.4668C22.2059 4.4668 23.5723 5.03955 24.583 6.18506C25.6012 7.33057 26.1104 8.88037 26.1104 10.8345ZM16.7329 10.8345C16.7329 12.4067 17.0474 13.6047 17.6763 14.4282C18.3052 15.2518 19.2298 15.6636 20.4502 15.6636C21.6706 15.6636 22.5952 15.2555 23.2241 14.4395C23.8605 13.6159 24.1787 12.4142 24.1787 10.8345C24.1787 9.26969 23.8605 8.08301 23.2241 7.27441C22.5952 6.45833 21.6631 6.05029 20.4277 6.05029C19.2074 6.05029 18.2865 6.45085 17.665 7.25195C17.0436 8.05306 16.7329 9.24723 16.7329 10.8345ZM37.8125 17V9.0376C37.8125 8.03434 37.5841 7.28564 37.1274 6.7915C36.6707 6.29736 35.9557 6.05029 34.9824 6.05029C33.6947 6.05029 32.7513 6.39844 32.1523 7.09473C31.5534 7.79102 31.2539 8.94027 31.2539 10.5425V17H29.3896V4.69141H30.9058L31.209 6.37598H31.2988C31.6807 5.76953 32.216 5.3016 32.9048 4.97217C33.5936 4.63525 34.361 4.4668 35.207 4.4668C36.6895 4.4668 37.805 4.82617 38.5537 5.54492C39.3024 6.25618 39.6768 7.39795 39.6768 8.97021V17H37.8125ZM47.4932 15.686C47.8226 15.686 48.1408 15.6636 48.4478 15.6187C48.7547 15.5662 48.998 15.5138 49.1777 15.4614V16.8877C48.9756 16.985 48.6761 17.0636 48.2793 17.1235C47.89 17.1909 47.5381 17.2246 47.2236 17.2246C44.8428 17.2246 43.6523 15.9705 43.6523 13.4624V6.14014H41.8892V5.2417L43.6523 4.4668L44.4385 1.83887H45.5166V4.69141H49.0879V6.14014H45.5166V13.3838C45.5166 14.125 45.6925 14.694 46.0444 15.0908C46.3963 15.4876 46.8792 15.686 47.4932 15.686ZM59.2178 17L58.8472 15.248H58.7573C58.1434 16.0192 57.5295 16.5433 56.9155 16.8203C56.3091 17.0898 55.5492 17.2246 54.6357 17.2246C53.4154 17.2246 52.457 16.9102 51.7607 16.2812C51.0719 15.6523 50.7275 14.7576 50.7275 13.5972C50.7275 11.1115 52.7153 9.80876 56.6909 9.68896L58.7798 9.62158V8.85791C58.7798 7.89209 58.5701 7.18083 58.1509 6.72412C57.7391 6.25993 57.0765 6.02783 56.1631 6.02783C55.1374 6.02783 53.9769 6.34229 52.6816 6.97119L52.1089 5.54492C52.7153 5.21549 53.3779 4.95719 54.0967 4.77002C54.8229 4.58285 55.5492 4.48926 56.2754 4.48926C57.7428 4.48926 58.8285 4.81494 59.5322 5.46631C60.2435 6.11768 60.5991 7.16211 60.5991 8.59961V17H59.2178ZM55.0063 15.686C56.1668 15.686 57.0765 15.3678 57.7354 14.7314C58.4017 14.0951 58.7349 13.2041 58.7349 12.0586V10.9468L56.8706 11.0254C55.3882 11.0778 54.3175 11.3099 53.6587 11.7217C53.0073 12.126 52.6816 12.7586 52.6816 13.6196C52.6816 14.2935 52.8838 14.8063 53.2881 15.1582C53.6999 15.5101 54.2726 15.686 55.0063 15.686ZM69.3701 17.2246C67.5882 17.2246 66.2069 16.6781 65.2261 15.585C64.2528 14.4844 63.7661 12.9308 63.7661 10.9243C63.7661 8.8654 64.2603 7.27441 65.2485 6.15137C66.2443 5.02832 67.6593 4.4668 69.4937 4.4668C70.0851 4.4668 70.6766 4.53044 71.2681 4.65771C71.8595 4.78499 72.3237 4.93473 72.6606 5.10693L72.0879 6.69043C71.6761 6.52572 71.2269 6.39095 70.7402 6.28613C70.2536 6.17383 69.8231 6.11768 69.4487 6.11768C66.9481 6.11768 65.6978 7.7124 65.6978 10.9019C65.6978 12.4142 66.001 13.5747 66.6074 14.3833C67.2214 15.1919 68.1273 15.5962 69.3252 15.5962C70.3509 15.5962 71.4028 15.3753 72.481 14.9336V16.5845C71.6574 17.0112 70.6204 17.2246 69.3701 17.2246ZM79.3877 15.686C79.7171 15.686 80.0353 15.6636 80.3423 15.6187C80.6493 15.5662 80.8926 15.5138 81.0723 15.4614V16.8877C80.8701 16.985 80.5706 17.0636 80.1738 17.1235C79.7845 17.1909 79.4326 17.2246 79.1182 17.2246C76.7373 17.2246 75.5469 15.9705 75.5469 13.4624V6.14014H73.7837V5.2417L75.5469 4.4668L76.333 1.83887H77.4111V4.69141H80.9824V6.14014H77.4111V13.3838C77.4111 14.125 77.5871 14.694 77.939 15.0908C78.2909 15.4876 78.7738 15.686 79.3877 15.686ZM91.4829 13.6421C91.4829 14.7876 91.0562 15.6711 90.2026 16.2925C89.3491 16.9139 88.1512 17.2246 86.6089 17.2246C84.9767 17.2246 83.7039 16.9663 82.7905 16.4497V14.7202C83.382 15.0197 84.0146 15.2555 84.6885 15.4277C85.3698 15.5999 86.0249 15.686 86.6538 15.686C87.6271 15.686 88.3758 15.5326 88.8999 15.2256C89.424 14.9111 89.686 14.4357 89.686 13.7993C89.686 13.3201 89.4764 12.9121 89.0571 12.5752C88.6453 12.2308 87.8368 11.8265 86.6313 11.3623C85.4858 10.9355 84.6698 10.5649 84.1831 10.2505C83.7039 9.92855 83.3446 9.56543 83.105 9.16113C82.8729 8.75684 82.7568 8.27393 82.7568 7.7124C82.7568 6.70915 83.1649 5.91927 83.981 5.34277C84.797 4.75879 85.9163 4.4668 87.3389 4.4668C88.6641 4.4668 89.9593 4.73633 91.2246 5.27539L90.562 6.7915C89.3267 6.28239 88.2074 6.02783 87.2041 6.02783C86.3206 6.02783 85.6543 6.16634 85.2051 6.44336C84.7559 6.72038 84.5312 7.10221 84.5312 7.58887C84.5312 7.91829 84.6136 8.19906 84.7783 8.43115C84.9505 8.66325 85.2238 8.88411 85.5981 9.09375C85.9725 9.30339 86.6912 9.60661 87.7544 10.0034C89.2144 10.535 90.1989 11.0703 90.708 11.6094C91.2246 12.1484 91.4829 12.826 91.4829 13.6421Z" fill="#F7F7F7"/>
</svg>
