<svg width="71" height="18" viewBox="0 0 71 18" fill="none" xmlns="http://www.w3.org/2000/svg">
<path d="M0.331543 17V0.648438H4.94727C6.36979 0.648438 7.6276 0.962891 8.7207 1.5918C9.8138 2.2207 10.6561 3.1154 11.2476 4.27588C11.8465 5.43636 12.1497 6.76904 12.1572 8.27393V9.31836C12.1572 10.8607 11.8577 12.2121 11.2588 13.3726C10.6673 14.533 9.81755 15.424 8.70947 16.0454C7.60889 16.6668 6.32487 16.985 4.85742 17H0.331543ZM2.48779 2.42285V15.2368H4.75635C6.41846 15.2368 7.70996 14.7202 8.63086 13.687C9.55924 12.6538 10.0234 11.1826 10.0234 9.27344V8.31885C10.0234 6.46208 9.58545 5.02083 8.70947 3.99512C7.84098 2.96191 6.60563 2.43783 5.00342 2.42285H2.48779ZM14.5493 10.812C14.5493 9.62158 14.7814 8.55094 15.2456 7.6001C15.7173 6.64925 16.3687 5.91553 17.1997 5.39893C18.0382 4.88232 18.9928 4.62402 20.0635 4.62402C21.7181 4.62402 23.0545 5.19678 24.0728 6.34229C25.0985 7.48779 25.6113 9.01139 25.6113 10.9131V11.0591C25.6113 12.242 25.383 13.3052 24.9263 14.2485C24.4771 15.1844 23.8294 15.9144 22.9834 16.4385C22.1449 16.9626 21.179 17.2246 20.0859 17.2246C18.4388 17.2246 17.1024 16.6519 16.0767 15.5063C15.0584 14.3608 14.5493 12.8447 14.5493 10.958V10.812ZM16.6382 11.0591C16.6382 12.4067 16.9489 13.4886 17.5703 14.3047C18.1992 15.1208 19.0378 15.5288 20.0859 15.5288C21.1416 15.5288 21.9801 15.117 22.6016 14.2935C23.223 13.4624 23.5337 12.3019 23.5337 10.812C23.5337 9.47933 23.2155 8.4012 22.5791 7.57764C21.9502 6.74658 21.1117 6.33105 20.0635 6.33105C19.0378 6.33105 18.2104 6.7391 17.5815 7.55518C16.9526 8.37126 16.6382 9.53923 16.6382 11.0591ZM30.1821 4.84863L30.2495 6.37598C31.1779 5.20801 32.3908 4.62402 33.8882 4.62402C36.4562 4.62402 37.7515 6.07275 37.7739 8.97021V17H35.6963V8.95898C35.6888 8.08301 35.4867 7.43538 35.0898 7.01611C34.7005 6.59684 34.0903 6.38721 33.2593 6.38721C32.5854 6.38721 31.994 6.56689 31.4849 6.92627C30.9757 7.28564 30.5789 7.75732 30.2944 8.34131V17H28.2168V4.84863H30.1821ZM48.4092 17C48.2894 16.7604 48.1921 16.3337 48.1172 15.7197C47.1514 16.723 45.9984 17.2246 44.6582 17.2246C43.4603 17.2246 42.4757 16.8877 41.7046 16.2139C40.9409 15.5326 40.5591 14.6715 40.5591 13.6309C40.5591 12.3656 41.0382 11.3848 41.9966 10.6885C42.9624 9.9847 44.3175 9.63281 46.062 9.63281H48.0835V8.67822C48.0835 7.95199 47.8664 7.37549 47.4321 6.94873C46.9979 6.51449 46.3577 6.29736 45.5117 6.29736C44.7705 6.29736 44.1491 6.48454 43.6475 6.85889C43.1458 7.23324 42.895 7.6862 42.895 8.21777H40.8062C40.8062 7.61133 41.0195 7.02734 41.4463 6.46582C41.8805 5.89681 42.4645 5.44759 43.1982 5.11816C43.9395 4.78874 44.7518 4.62402 45.6353 4.62402C47.0353 4.62402 48.1322 4.97591 48.9258 5.67969C49.7194 6.37598 50.1312 7.33805 50.1611 8.56592V14.1587C50.1611 15.2743 50.3034 16.1615 50.5879 16.8203V17H48.4092ZM44.9614 15.4165C45.6128 15.4165 46.2305 15.248 46.8145 14.9111C47.3984 14.5742 47.8215 14.1362 48.0835 13.5972V11.104H46.4551C43.9095 11.104 42.6367 11.849 42.6367 13.3389C42.6367 13.9902 42.8538 14.4993 43.2881 14.8662C43.7223 15.2331 44.2801 15.4165 44.9614 15.4165ZM56.2368 1.90625V4.84863H58.5054V6.45459H56.2368V13.9902C56.2368 14.4769 56.3379 14.8438 56.54 15.0908C56.7422 15.3304 57.0866 15.4502 57.5732 15.4502C57.8128 15.4502 58.1423 15.4053 58.5615 15.3154V17C58.015 17.1497 57.4834 17.2246 56.9668 17.2246C56.0384 17.2246 55.3384 16.9438 54.8667 16.3823C54.395 15.8208 54.1592 15.0234 54.1592 13.9902V6.45459H51.9468V4.84863H54.1592V1.90625H56.2368ZM65.9849 17.2246C64.3377 17.2246 62.9976 16.6855 61.9644 15.6074C60.9312 14.5218 60.4146 13.0731 60.4146 11.2612V10.8794C60.4146 9.67399 60.6429 8.59961 61.0996 7.65625C61.5638 6.7054 62.2077 5.96419 63.0312 5.43262C63.8623 4.89355 64.7607 4.62402 65.7266 4.62402C67.3063 4.62402 68.5342 5.14437 69.4102 6.18506C70.2861 7.22575 70.7241 8.71566 70.7241 10.6548V11.5195H62.4922C62.5221 12.7174 62.8703 13.687 63.5366 14.4282C64.2104 15.1619 65.064 15.5288 66.0972 15.5288C66.8309 15.5288 67.4523 15.3791 67.9614 15.0796C68.4705 14.7801 68.916 14.3833 69.2979 13.8892L70.5669 14.8774C69.5487 16.4422 68.0213 17.2246 65.9849 17.2246ZM65.7266 6.33105C64.888 6.33105 64.1842 6.63802 63.6152 7.25195C63.0462 7.8584 62.6943 8.71191 62.5596 9.8125H68.6465V9.65527C68.5866 8.59961 68.3021 7.78353 67.793 7.20703C67.2839 6.62305 66.5951 6.33105 65.7266 6.33105Z" fill="#F7F7F7"/>
</svg>
