<svg width="122" height="18" viewBox="0 0 122 18" fill="none" xmlns="http://www.w3.org/2000/svg">
<path d="M0.257324 17V0.581055H2.1665V15.2705H9.41016V17H0.257324ZM17.1255 17.2246C15.3062 17.2246 13.8687 16.6706 12.813 15.5625C11.7648 14.4544 11.2407 12.9159 11.2407 10.9468C11.2407 8.96273 11.7274 7.38672 12.7007 6.21875C13.6815 5.05078 14.9954 4.4668 16.6426 4.4668C18.1849 4.4668 19.4053 4.97591 20.3037 5.99414C21.2021 7.00488 21.6514 8.34131 21.6514 10.0034V11.1826H13.1724C13.2098 12.6276 13.5729 13.7244 14.2617 14.4731C14.958 15.2218 15.9351 15.5962 17.1929 15.5962C18.5181 15.5962 19.8283 15.3192 21.1235 14.7651V16.4272C20.4647 16.7118 19.8395 16.9139 19.248 17.0337C18.6641 17.161 17.9565 17.2246 17.1255 17.2246ZM16.6201 6.02783C15.6318 6.02783 14.842 6.34977 14.2505 6.99365C13.6665 7.63753 13.3221 8.52848 13.2173 9.6665H19.6523C19.6523 8.49105 19.3903 7.59261 18.8662 6.97119C18.3421 6.34229 17.5934 6.02783 16.6201 6.02783ZM32.4102 17L32.0396 15.248H31.9497C31.3358 16.0192 30.7218 16.5433 30.1079 16.8203C29.5015 17.0898 28.7415 17.2246 27.8281 17.2246C26.6077 17.2246 25.6494 16.9102 24.9531 16.2812C24.2643 15.6523 23.9199 14.7576 23.9199 13.5972C23.9199 11.1115 25.9077 9.80876 29.8833 9.68896L31.9722 9.62158V8.85791C31.9722 7.89209 31.7625 7.18083 31.3433 6.72412C30.9315 6.25993 30.2689 6.02783 29.3555 6.02783C28.3298 6.02783 27.1693 6.34229 25.874 6.97119L25.3013 5.54492C25.9077 5.21549 26.5703 4.95719 27.2891 4.77002C28.0153 4.58285 28.7415 4.48926 29.4678 4.48926C30.9352 4.48926 32.0208 4.81494 32.7246 5.46631C33.4359 6.11768 33.7915 7.16211 33.7915 8.59961V17H32.4102ZM28.1987 15.686C29.3592 15.686 30.2689 15.3678 30.9277 14.7314C31.5941 14.0951 31.9272 13.2041 31.9272 12.0586V10.9468L30.063 11.0254C28.5806 11.0778 27.5099 11.3099 26.8511 11.7217C26.1997 12.126 25.874 12.7586 25.874 13.6196C25.874 14.2935 26.0762 14.8063 26.4805 15.1582C26.8923 15.5101 27.465 15.686 28.1987 15.686ZM43.2588 4.4668C43.8053 4.4668 44.2957 4.51172 44.73 4.60156L44.4717 6.33105C43.9626 6.21875 43.5133 6.1626 43.124 6.1626C42.1283 6.1626 41.2747 6.56689 40.5635 7.37549C39.8597 8.18408 39.5078 9.19108 39.5078 10.3965V17H37.6436V4.69141H39.1821L39.3955 6.97119H39.4854C39.9421 6.17008 40.4924 5.55241 41.1362 5.11816C41.7801 4.68392 42.4876 4.4668 43.2588 4.4668ZM55.4551 17V9.0376C55.4551 8.03434 55.2267 7.28564 54.77 6.7915C54.3133 6.29736 53.5983 6.05029 52.625 6.05029C51.3372 6.05029 50.3939 6.39844 49.7949 7.09473C49.196 7.79102 48.8965 8.94027 48.8965 10.5425V17H47.0322V4.69141H48.5483L48.8516 6.37598H48.9414C49.3232 5.76953 49.8586 5.3016 50.5474 4.97217C51.2362 4.63525 52.0036 4.4668 52.8496 4.4668C54.332 4.4668 55.4476 4.82617 56.1963 5.54492C56.945 6.25618 57.3193 7.39795 57.3193 8.97021V17H55.4551ZM82.8237 17V8.99268C82.8237 8.01188 82.6141 7.27816 82.1948 6.7915C81.7756 6.29736 81.1242 6.05029 80.2407 6.05029C79.0802 6.05029 78.223 6.38346 77.6689 7.0498C77.1149 7.71615 76.8379 8.74186 76.8379 10.127V17H74.9736V8.99268C74.9736 8.01188 74.764 7.27816 74.3447 6.7915C73.9255 6.29736 73.2703 6.05029 72.3794 6.05029C71.2114 6.05029 70.3542 6.40218 69.8076 7.10596C69.2686 7.80225 68.999 8.94775 68.999 10.5425V17H67.1348V4.69141H68.6509L68.9541 6.37598H69.0439C69.3958 5.77702 69.89 5.30908 70.5264 4.97217C71.1702 4.63525 71.889 4.4668 72.6826 4.4668C74.6068 4.4668 75.8646 5.16309 76.4561 6.55566H76.5459C76.9128 5.91178 77.4443 5.40267 78.1406 5.02832C78.8369 4.65397 79.6305 4.4668 80.5215 4.4668C81.9141 4.4668 82.9548 4.82617 83.6436 5.54492C84.3398 6.25618 84.688 7.39795 84.688 8.97021V17H82.8237ZM99.1641 10.8345C99.1641 12.841 98.6587 14.4095 97.6479 15.54C96.6372 16.6631 95.2409 17.2246 93.459 17.2246C92.3584 17.2246 91.3813 16.9663 90.5278 16.4497C89.6743 15.9331 89.0155 15.1919 88.5513 14.2261C88.0871 13.2603 87.855 12.1297 87.855 10.8345C87.855 8.82796 88.3566 7.26693 89.3599 6.15137C90.3631 5.02832 91.7557 4.4668 93.5376 4.4668C95.2596 4.4668 96.626 5.03955 97.6367 6.18506C98.6549 7.33057 99.1641 8.88037 99.1641 10.8345ZM89.7866 10.8345C89.7866 12.4067 90.1011 13.6047 90.73 14.4282C91.3589 15.2518 92.2835 15.6636 93.5039 15.6636C94.7243 15.6636 95.6489 15.2555 96.2778 14.4395C96.9142 13.6159 97.2324 12.4142 97.2324 10.8345C97.2324 9.26969 96.9142 8.08301 96.2778 7.27441C95.6489 6.45833 94.7168 6.05029 93.4814 6.05029C92.2611 6.05029 91.3402 6.45085 90.7188 7.25195C90.0973 8.05306 89.7866 9.24723 89.7866 10.8345ZM108.059 4.4668C108.605 4.4668 109.096 4.51172 109.53 4.60156L109.271 6.33105C108.762 6.21875 108.313 6.1626 107.924 6.1626C106.928 6.1626 106.075 6.56689 105.363 7.37549C104.66 8.18408 104.308 9.19108 104.308 10.3965V17H102.443V4.69141H103.982L104.195 6.97119H104.285C104.742 6.17008 105.292 5.55241 105.936 5.11816C106.58 4.68392 107.287 4.4668 108.059 4.4668ZM117.032 17.2246C115.212 17.2246 113.775 16.6706 112.719 15.5625C111.671 14.4544 111.147 12.9159 111.147 10.9468C111.147 8.96273 111.634 7.38672 112.607 6.21875C113.588 5.05078 114.902 4.4668 116.549 4.4668C118.091 4.4668 119.312 4.97591 120.21 5.99414C121.108 7.00488 121.558 8.34131 121.558 10.0034V11.1826H113.079C113.116 12.6276 113.479 13.7244 114.168 14.4731C114.864 15.2218 115.841 15.5962 117.099 15.5962C118.424 15.5962 119.735 15.3192 121.03 14.7651V16.4272C120.371 16.7118 119.746 16.9139 119.154 17.0337C118.57 17.161 117.863 17.2246 117.032 17.2246ZM116.526 6.02783C115.538 6.02783 114.748 6.34977 114.157 6.99365C113.573 7.63753 113.228 8.52848 113.124 9.6665H119.559C119.559 8.49105 119.297 7.59261 118.772 6.97119C118.248 6.34229 117.5 6.02783 116.526 6.02783Z" fill="#F7F7F7"/>
</svg>
