<svg width="69" height="23" viewBox="0 0 69 23" fill="none" xmlns="http://www.w3.org/2000/svg">
<path d="M10.978 12.6313C10.978 14.0763 10.4539 15.2031 9.40576 16.0117C8.35758 16.8203 6.93506 17.2246 5.13818 17.2246C3.19157 17.2246 1.69417 16.9738 0.645996 16.4722V14.6304C1.31982 14.9149 2.05355 15.1395 2.84717 15.3042C3.64079 15.4689 4.42692 15.5513 5.20557 15.5513C6.47835 15.5513 7.43669 15.3117 8.08057 14.8325C8.72445 14.3459 9.04639 13.672 9.04639 12.811C9.04639 12.242 8.93034 11.7778 8.69824 11.4185C8.47363 11.0516 8.0918 10.7147 7.55273 10.4077C7.02116 10.1007 6.20882 9.7526 5.11572 9.36328C3.58838 8.81673 2.49528 8.16911 1.83643 7.42041C1.18506 6.67171 0.859375 5.69466 0.859375 4.48926C0.859375 3.22396 1.3348 2.21696 2.28564 1.46826C3.23649 0.719564 4.4943 0.345215 6.05908 0.345215C7.69124 0.345215 9.19238 0.644694 10.5625 1.24365L9.96729 2.90576C8.61214 2.33675 7.29443 2.05225 6.01416 2.05225C5.00342 2.05225 4.21354 2.26937 3.64453 2.70361C3.07552 3.13786 2.79102 3.74056 2.79102 4.51172C2.79102 5.08073 2.89583 5.54867 3.10547 5.91553C3.3151 6.2749 3.66699 6.60807 4.16113 6.91504C4.66276 7.21452 5.42643 7.54769 6.45215 7.91455C8.17415 8.52848 9.3571 9.18734 10.001 9.89111C10.6523 10.5949 10.978 11.5083 10.978 12.6313ZM15.9194 17H14.0552V4.69141H15.9194V17ZM13.8979 1.35596C13.8979 0.929199 14.0028 0.61849 14.2124 0.423828C14.422 0.22168 14.6841 0.120605 14.9985 0.120605C15.298 0.120605 15.5563 0.22168 15.7734 0.423828C15.9906 0.625977 16.0991 0.936686 16.0991 1.35596C16.0991 1.77523 15.9906 2.08968 15.7734 2.29932C15.5563 2.50146 15.298 2.60254 14.9985 2.60254C14.6841 2.60254 14.422 2.50146 14.2124 2.29932C14.0028 2.08968 13.8979 1.77523 13.8979 1.35596ZM29.9463 4.69141V5.87061L27.6665 6.14014C27.8761 6.40218 28.0633 6.74658 28.228 7.17334C28.3927 7.59261 28.4751 8.06803 28.4751 8.59961C28.4751 9.80501 28.0633 10.7671 27.2397 11.4858C26.4162 12.2046 25.2856 12.564 23.8481 12.564C23.4813 12.564 23.1369 12.534 22.8149 12.4741C22.0213 12.8934 21.6245 13.4212 21.6245 14.0576C21.6245 14.3945 21.763 14.6453 22.04 14.8101C22.3171 14.9673 22.7925 15.0459 23.4663 15.0459H25.645C26.9777 15.0459 27.9997 15.3267 28.7109 15.8882C29.4297 16.4497 29.7891 17.2658 29.7891 18.3364C29.7891 19.6991 29.2425 20.736 28.1494 21.4473C27.0563 22.166 25.4616 22.5254 23.3652 22.5254C21.7555 22.5254 20.5127 22.2259 19.6367 21.627C18.7682 21.028 18.334 20.182 18.334 19.0889C18.334 18.3402 18.5736 17.6925 19.0527 17.146C19.5319 16.5994 20.2057 16.2288 21.0742 16.0342C20.7598 15.8919 20.494 15.6711 20.2769 15.3716C20.0672 15.0721 19.9624 14.724 19.9624 14.3271C19.9624 13.8779 20.0822 13.4849 20.3218 13.1479C20.5614 12.811 20.9395 12.4854 21.4561 12.1709C20.8197 11.9089 20.2993 11.4634 19.895 10.8345C19.4982 10.2056 19.2998 9.48682 19.2998 8.67822C19.2998 7.33057 19.7041 6.29362 20.5127 5.56738C21.3213 4.83366 22.4668 4.4668 23.9492 4.4668C24.5931 4.4668 25.1733 4.54167 25.6899 4.69141H29.9463ZM20.1309 19.0664C20.1309 19.7327 20.4116 20.2381 20.9731 20.5825C21.5347 20.9269 22.3395 21.0991 23.3877 21.0991C24.9525 21.0991 26.1092 20.8633 26.8579 20.3916C27.6141 19.9274 27.9922 19.2948 27.9922 18.4937C27.9922 17.8273 27.7863 17.3631 27.3745 17.1011C26.9627 16.8465 26.1878 16.7192 25.0498 16.7192H22.8149C21.9689 16.7192 21.3101 16.9214 20.8384 17.3257C20.3667 17.73 20.1309 18.3102 20.1309 19.0664ZM21.1416 8.6333C21.1416 9.4943 21.3849 10.1457 21.8716 10.5874C22.3582 11.0291 23.0358 11.25 23.9043 11.25C25.7236 11.25 26.6333 10.3665 26.6333 8.59961C26.6333 6.75033 25.7124 5.82568 23.8706 5.82568C22.9946 5.82568 22.3208 6.06152 21.8491 6.5332C21.3774 7.00488 21.1416 7.70492 21.1416 8.6333ZM40.896 17V9.0376C40.896 8.03434 40.6676 7.28564 40.2109 6.7915C39.7542 6.29736 39.0392 6.05029 38.0659 6.05029C36.7782 6.05029 35.8348 6.39844 35.2358 7.09473C34.6369 7.79102 34.3374 8.94027 34.3374 10.5425V17H32.4731V4.69141H33.9893L34.2925 6.37598H34.3823C34.7642 5.76953 35.2995 5.3016 35.9883 4.97217C36.6771 4.63525 37.4445 4.4668 38.2905 4.4668C39.7729 4.4668 40.8885 4.82617 41.6372 5.54492C42.3859 6.25618 42.7603 7.39795 42.7603 8.97021V17H40.896ZM54.4399 17H52.5757V4.69141H54.4399V17ZM52.4185 1.35596C52.4185 0.929199 52.5233 0.61849 52.7329 0.423828C52.9425 0.22168 53.2046 0.120605 53.519 0.120605C53.8185 0.120605 54.0768 0.22168 54.2939 0.423828C54.5111 0.625977 54.6196 0.936686 54.6196 1.35596C54.6196 1.77523 54.5111 2.08968 54.2939 2.29932C54.0768 2.50146 53.8185 2.60254 53.519 2.60254C53.2046 2.60254 52.9425 2.50146 52.7329 2.29932C52.5233 2.08968 52.4185 1.77523 52.4185 1.35596ZM66.8159 17V9.0376C66.8159 8.03434 66.5876 7.28564 66.1309 6.7915C65.6742 6.29736 64.9591 6.05029 63.9858 6.05029C62.6981 6.05029 61.7547 6.39844 61.1558 7.09473C60.5568 7.79102 60.2573 8.94027 60.2573 10.5425V17H58.3931V4.69141H59.9092L60.2124 6.37598H60.3022C60.6841 5.76953 61.2194 5.3016 61.9082 4.97217C62.597 4.63525 63.3644 4.4668 64.2104 4.4668C65.6929 4.4668 66.8084 4.82617 67.5571 5.54492C68.3058 6.25618 68.6802 7.39795 68.6802 8.97021V17H66.8159Z" fill="#F7F7F7"/>
</svg>
